<?xml version="1.0" encoding="iso-8859-1"?>
<!-- Uploaded to: SVG Repo, www.svgrepo.com, Generator: SVG Repo Mixer Tools -->
<svg height="800px" width="800px" version="1.1" id="Layer_1" xmlns="http://www.w3.org/2000/svg" xmlns:xlink="http://www.w3.org/1999/xlink" 
	 viewBox="0 0 512 512" xml:space="preserve">
<g>
	<path style="fill:#DDE1ED;" d="M221.441,467.945c-20.647,42.915-51.38,50.523-68.725,39.569s-3.081-42.78,11.392-57.144
		L221.441,467.945z"/>
	<path style="fill:#DDE1ED;" d="M290.559,467.945c20.647,42.915,51.38,50.523,68.725,39.569
		c17.344-10.954,3.081-42.78-11.392-57.144L290.559,467.945z"/>
</g>
<g>
	<path style="fill:#4DA3CC;" d="M49.186,229.708c-38.881-7.654-25.781,87.979,98.237,68.329l13.537-42.952v-16.874L49.186,229.708z"
		/>
	<path style="fill:#4DA3CC;" d="M462.814,229.708c38.881-7.654,25.781,87.979-98.237,68.329l-13.537-42.952v-16.874L462.814,229.708
		z"/>
</g>
<g>
	<path style="fill:#57B8E6;" d="M36.518,149.774c-41.06,23.808-12.697,102.971,104.126,105.31h31.233l25.328-45.695L36.518,149.774z
		"/>
	<path style="fill:#57B8E6;" d="M475.482,149.774c41.06,23.808,12.697,102.971-104.126,105.31h-31.233l-25.328-45.695
		L475.482,149.774z"/>
</g>
<g>
	<path style="fill:#61CCFF;" d="M159.649,163.102c-55.459-18.777-78.166-81.223-107.423-71.18s-53.712,89.52,107.423,128.822
		l29.393,6.676L159.649,163.102z"/>
	<path style="fill:#61CCFF;" d="M352.35,163.102c55.459-18.777,78.166-81.223,107.423-71.18s53.712,89.52-107.423,128.822
		l-29.392,6.676L352.35,163.102z"/>
</g>
<path style="fill:#695352;" d="M256,261.26c-65.301,0-118.427-58.601-118.427-130.63C137.573,58.601,190.699,0,256,0
	s118.427,58.601,118.427,130.631S321.301,261.26,256,261.26z"/>
<path style="fill:#D1D5E0;" d="M256,183.456c-90.741,0-119.646,37.532-133.366,163.048l34.485,43.453l98.88,16.078l114.931-20.15
	l18.435-39.381C375.646,220.987,346.741,183.456,256,183.456z"/>
<path style="fill:#F2C4A4;" d="M329.9,101.029c-37.701-0.008-56.606-20.175-65.789-36.832c-3.506-6.358-12.716-6.358-16.222,0
	c-9.184,16.657-28.088,36.825-65.789,36.832c-1.311,5.589-2.026,11.409-2.026,17.398c0,41.933,33.993,75.927,75.927,75.927
	s75.927-33.993,75.927-75.927C331.927,112.437,331.211,106.618,329.9,101.029z"/>
<g>
	<circle style="fill:#2D2C33;" cx="221.196" cy="122.291" r="10.406"/>
	<circle style="fill:#2D2C33;" cx="290.809" cy="122.291" r="10.406"/>
</g>
<path style="fill:#D1D5E0;" d="M393.31,389.958L256,406.036l-137.31-16.078c-0.635,8.371-1.238,17.041-1.814,26.046
	c0,0,44.317,54.487,139.124,54.487s139.124-54.487,139.124-54.487C394.548,406.999,393.945,398.329,393.31,389.958z"/>
<path style="fill:#E6C26E;" d="M363.417,362.978c-38.673,19.958-79.759,24.148-107.417,24.148
	c-50.109,0-86.072-13.131-107.418-24.148c-11.522-5.946-20.159-11.937-25.948-16.474c-1.47,13.451-2.766,27.919-3.944,43.453
	c27.661,16.644,73.009,35.31,137.31,35.31s109.649-18.666,137.31-35.31c-1.179-15.533-2.474-30.003-3.944-43.453
	C383.577,351.041,374.939,357.032,363.417,362.978z"/>
<path style="fill:#2D2C33;" d="M256.02,162.193c-8.827,0-16.966-2.262-22.332-6.206c-3.636-2.674-4.418-7.789-1.745-11.426
	c2.674-3.636,7.789-4.417,11.426-1.745c1.902,1.398,6.356,3.031,12.651,3.031c5.961,0,10.677-1.544,12.707-3.073
	c3.604-2.718,8.729-1.997,11.446,1.607s1.997,8.729-1.607,11.446C273.198,159.873,264.981,162.193,256.02,162.193z"/>
<path style="fill:#DDE1ED;" d="M370.998,201.951c-10.378-12.894-29.245-14.931-42.135-4.554
	c-12.893,10.378-14.932,29.242-4.554,42.136c6.718,8.346,13.142,20.061,16.089,28.464c1.431,4.08-1.051,8.49-5.298,9.29
	c-2.791,0.525-6.451,0.97-11.172,1.156l-6.242,29.898l7.631,29.983c35.398-1.333,59.018-13.119,70.324-35.161
	C416.693,262.123,378.807,211.652,370.998,201.951z"/>
<path style="fill:#F2C4A4;" d="M323.928,278.444c-3.9,0.154-8.523,0.133-13.999-0.169c-16.699-0.924-30.98,12.045-31.593,28.847
	c-0.598,16.452,12.576,30.185,29.015,31.038c3.799,0.197,7.485,0.295,11.064,0.295c2.348,0,4.647-0.046,6.899-0.13
	c7.147-7.657,11.527-17.93,11.527-29.229C336.845,297.08,331.893,286.226,323.928,278.444z"/>
<path style="fill:#DDE1ED;" d="M141.002,201.951c10.378-12.894,29.245-14.931,42.135-4.554
	c12.893,10.378,14.932,29.242,4.554,42.136c-6.718,8.346-13.142,20.061-16.089,28.464c-1.431,4.08,1.051,8.49,5.298,9.29
	c2.791,0.525,6.451,0.97,11.172,1.156l6.242,29.898l-7.631,29.983c-35.398-1.333-59.018-13.119-70.324-35.161
	C95.307,262.123,133.192,211.652,141.002,201.951z"/>
<path style="fill:#F2C4A4;" d="M188.072,278.444c3.9,0.154,8.523,0.133,13.999-0.169c16.699-0.924,30.98,12.045,31.593,28.847
	c0.598,16.452-12.576,30.185-29.015,31.038c-3.799,0.197-7.485,0.295-11.064,0.295c-2.348,0-4.647-0.046-6.899-0.13
	c-7.147-7.657-11.527-17.93-11.527-29.229C175.155,297.08,180.106,286.226,188.072,278.444z"/>
</svg>