<?xml version="1.0" encoding="iso-8859-1"?>
<!-- Uploaded to: SVG Repo, www.svgrepo.com, Generator: SVG Repo Mixer Tools -->
<svg height="800px" width="800px" version="1.1" id="Layer_1" xmlns="http://www.w3.org/2000/svg" xmlns:xlink="http://www.w3.org/1999/xlink" 
	 viewBox="0 0 512.001 512.001" xml:space="preserve">
<path style="fill:#FF6342;" d="M43.877,281.988c-58.52-58.566-58.5-153.842,0.044-212.386
	c28.343-28.344,66.093-43.954,106.297-43.954c40.066,0,77.712,15.5,106.068,43.653c28.331-28.13,65.835-43.629,105.664-43.652
	c39.951,0,77.474,15.512,105.787,43.688c28.212,28.076,44.198,66.429,44.262,106.231c0.065,40.194-15.55,77.998-43.953,106.422
	L259.35,485.106c-1.705,1.66-4.422,1.662-6.13,0.004L43.877,281.988z"/>
<path style="fill:#FE5025;" d="M79.447,281.988C20.928,223.422,20.947,128.145,79.49,69.601
	c24.12-24.121,55.056-39.013,88.516-42.916c-5.861-0.684-11.797-1.038-17.789-1.038c-40.204,0-77.954,15.609-106.297,43.954
	c-58.543,58.544-58.563,153.82-0.044,212.386l209.342,203.123c1.707,1.657,4.424,1.655,6.13-0.004l14.695-14.302L79.447,281.988z"/>
<g>
	<path style="fill:#EFCA83;" d="M266.461,336.563c-1.74-1.912-4.118-2.998-6.707-3.059l-0.194-0.002
		c-2.416,0-4.69,0.906-6.429,2.557l-0.339,0.291l-0.131,0.175l-11.099,11.099c-0.699,0.699-1.516,0.804-1.941,0.804
		s-1.242-0.104-1.941-0.804c-0.699-0.699-0.804-1.516-0.804-1.941s0.104-1.241,0.804-1.941l16.839-16.84
		c3.665-3.666,3.91-9.424,0.556-13.111c-1.741-1.913-4.118-3-6.721-3.061l-0.172-0.001c-2.507,0-4.858,0.971-6.62,2.733
		l-17.082,17.081c-0.699,0.699-1.516,0.804-1.941,0.804s-1.242-0.104-1.941-0.804c-0.699-0.699-0.804-1.516-0.804-1.941
		s0.104-1.241,0.804-1.941l22.535-22.534c3.664-3.666,3.909-9.424,0.555-13.11c-1.741-1.913-4.118-3-6.695-3.06l-0.211-0.002
		c-2.485,0-4.822,0.962-6.509,2.637l-22.874,22.872c-0.699,0.699-1.516,0.804-1.941,0.804s-1.241-0.104-1.941-0.804
		c-0.699-0.699-0.804-1.516-0.804-1.941s0.104-1.241,0.804-1.941l33.922-33.922c3.665-3.666,3.909-9.425,0.555-13.111
		c-1.74-1.913-4.118-2.999-6.746-3.061l-0.134-0.001c-2.516,0-4.872,0.971-6.634,2.733l-51.243,51.243
		c-0.699,0.699-1.516,0.804-1.941,0.804s-1.241-0.104-1.941-0.804c-0.699-0.699-0.804-1.516-0.804-1.941s0.104-1.241,0.804-1.941
		l17.155-17.157c1.773-1.813,2.716-4.205,2.656-6.745c-0.06-2.575-1.147-4.951-3.062-6.693c-1.661-1.511-3.846-2.343-6.152-2.343
		c-2.576,0-5.111,1.055-6.957,2.9l-37.14,37.14c-10.005,10.005-14.103,24.244-10.963,38.087l0.36,1.59l-2.329,2.329l54.666,53.042
		l2.253-2.402l1.679,0.285c2.303,0.392,4.646,0.591,6.966,0.591c10.893,0,21.154-4.26,28.892-11.998l48.528-48.528
		C269.572,346.011,269.816,340.252,266.461,336.563z"/>
	<path style="fill:#EFCA83;" d="M496.038,115.922l2.434-2.323c-7.438-16.344-17.793-31.381-30.728-44.256
		c-0.002-0.002-0.004-0.004-0.007-0.007c-1.099-1.094-2.216-2.161-3.342-3.216c-0.314-0.294-0.629-0.584-0.945-0.875
		c-0.905-0.833-1.818-1.655-2.74-2.464c-0.258-0.227-0.515-0.457-0.774-0.682c-1.168-1.011-2.349-2.005-3.543-2.977
		c-0.197-0.16-0.396-0.314-0.593-0.473c-1.029-0.829-2.068-1.643-3.115-2.442c-0.292-0.223-0.584-0.446-0.877-0.666
		c-1.217-0.915-2.442-1.815-3.682-2.69c-0.009-0.007-0.018-0.013-0.027-0.02c-1.3-0.917-2.615-1.806-3.941-2.679
		c-0.232-0.153-0.464-0.301-0.696-0.452c-1.139-0.741-2.286-1.466-3.443-2.174c-0.208-0.127-0.415-0.257-0.623-0.383
		c-1.37-0.83-2.751-1.64-4.145-2.424c0,0-0.001,0-0.001-0.001l-2.398,2.398l-35.252,35.252c-0.519,0.519-1.209,0.805-1.942,0.805
		c-0.293,0-0.584-0.047-0.863-0.139c-5.87-1.945-11.949-2.932-18.069-2.932c-15.119,0-29.374,5.929-40.141,16.696l-50.646,50.646
		c-5.287,5.287-5.641,13.926-0.788,19.258c2.559,2.812,6.054,4.41,9.881,4.5l0.233,0.001c3.7,0,7.166-1.427,9.757-4.019
		l23.292-23.292c0.699-0.699,1.516-0.804,1.941-0.804s1.242,0.104,1.941,0.804s0.804,1.516,0.804,1.941s-0.104,1.241-0.804,1.941
		l-69.878,69.878c-2.677,2.678-4.103,6.24-4.015,10.03c0.09,3.786,1.688,7.281,4.499,9.839c2.44,2.221,5.657,3.444,9.061,3.444
		c3.79,0,7.506-1.543,10.195-4.233l46.256-46.256c0.699-0.699,1.516-0.804,1.941-0.804s1.242,0.104,1.941,0.804
		c0.699,0.699,0.804,1.516,0.804,1.941s-0.104,1.241-0.804,1.941l-31.056,31.056c-2.679,2.679-4.105,6.241-4.015,10.03
		c0.09,3.787,1.688,7.282,4.499,9.839c2.44,2.221,5.657,3.444,9.061,3.444c3.789,0,7.505-1.543,10.196-4.232l30.728-30.728
		c0.699-0.699,1.516-0.804,1.941-0.804s1.241,0.104,1.941,0.804c0.699,0.699,0.804,1.516,0.804,1.941s-0.104,1.241-0.804,1.941
		l-23.568,23.567l-0.031,0.043c-2.48,2.64-3.795,6.071-3.709,9.713c0.09,3.787,1.688,7.282,4.499,9.84
		c2.44,2.22,5.658,3.443,9.061,3.443c3.789,0,7.505-1.543,10.195-4.232l7.296-7.296l0.303-0.262l0.122-0.164l15.242-15.242
		c0.699-0.699,1.516-0.804,1.941-0.804s1.241,0.104,1.941,0.804c0.699,0.699,0.804,1.516,0.804,1.941s-0.104,1.241-0.804,1.941
		l-14.925,14.925l-0.253,0.131l-0.569,0.696c-2.538,2.652-3.884,6.123-3.797,9.805c0.089,3.787,1.687,7.282,4.499,9.842
		c2.44,2.22,5.657,3.443,9.061,3.443c3.789,0,7.505-1.543,10.196-4.233l66.174-66.174c15.315-15.316,20.589-37.62,13.765-58.209
		c-0.328-0.992-0.074-2.066,0.664-2.805L496.038,115.922z"/>
</g>
</svg>